<svg width="170" height="48" viewBox="0 0 170 48" fill="none" xmlns="http://www.w3.org/2000/svg">
<g clip-path="url(#clip0_201_775)">
<mask id="mask0_201_775" style="mask-type:luminance" maskUnits="userSpaceOnUse" x="0" y="0" width="49" height="49">
<path d="M0 0H48.0205V48.293H0V0Z" fill="white"/>
</mask>
<g mask="url(#mask0_201_775)">
<path fill-rule="evenodd" clip-rule="evenodd" d="M1.80637 40.096L20.2529 35.937L1.8183 29.358L20.4766 30.95L6.79702 20.878L22.4818 26.634L7.39748 7.41899L26.4942 22.486L20.7569 6.83599L30.2829 20.133L29.4349 1.82199L35.4087 20.189L39.8605 1.80099V40.047L1.80637 40.096Z" fill="white"/>
</g>
<mask id="mask1_201_775" style="mask-type:luminance" maskUnits="userSpaceOnUse" x="0" y="0" width="49" height="49">
<path d="M0 0H48.0205V48.293H0V0Z" fill="white"/>
</mask>
<g mask="url(#mask1_201_775)">
<path fill-rule="evenodd" clip-rule="evenodd" d="M2.49632 1.801H46.1227V46.607H1.79146V1.801H2.49632V0H0V48.353H48.0205V0H2.49632V1.801Z" fill="white"/>
</g>
<path fill-rule="evenodd" clip-rule="evenodd" d="M167.508 24.196C168.761 24.196 169.777 23.174 169.777 21.914C169.777 20.652 168.761 19.631 167.508 19.631C166.255 19.631 165.24 20.652 165.24 21.914C165.24 23.174 166.255 24.196 167.508 24.196Z" stroke="white" stroke-width="0.25"/>
<path fill-rule="evenodd" clip-rule="evenodd" d="M166.378 23.276C166.556 23.265 166.743 23.255 166.914 23.255C167.053 23.255 167.24 23.265 167.419 23.276V23.182H167.324C167.145 23.182 167.101 23.141 167.101 22.933V22.044C167.43 22.044 167.438 22.068 167.585 22.26L168.36 23.276C168.462 23.265 168.57 23.255 168.677 23.255C168.788 23.255 168.897 23.265 169.003 23.276V23.182C168.844 23.169 168.765 23.153 168.606 22.944L168.04 22.204C167.952 22.093 167.87 22.017 167.805 21.965C168.281 21.864 168.514 21.55 168.514 21.177C168.514 20.553 168.044 20.391 167.523 20.391C167.339 20.391 167.157 20.413 166.914 20.413C166.743 20.413 166.556 20.402 166.378 20.391V20.487H166.473C166.652 20.487 166.695 20.526 166.695 20.735V22.933C166.695 23.141 166.652 23.182 166.473 23.182H166.378V23.276ZM167.101 20.629C167.101 20.541 167.122 20.532 167.249 20.532C167.992 20.532 168.078 20.899 168.078 21.253C168.078 21.511 167.972 21.925 167.289 21.925C167.22 21.925 167.153 21.921 167.101 21.917V20.629Z" fill="white"/>
<path fill-rule="evenodd" clip-rule="evenodd" d="M59.7506 39.652V19.543H71.5661V20.846H63.5144V28.605H71.1048V29.907H63.5144V38.349H71.6893V39.652H59.7506Z" fill="white"/>
<path fill-rule="evenodd" clip-rule="evenodd" d="M80.4041 38.349H82.7483C88.7659 38.349 90.0315 33.973 90.0315 30.032C90.0315 24.973 87.6853 20.846 82.9342 20.846H80.4041V38.349ZM76.6412 19.543H83.1509C90.3695 19.543 93.7943 24.693 93.7943 29.971C93.7943 36.395 89.6915 39.652 83.8607 39.652H76.6412V19.543Z" fill="white"/>
<path fill-rule="evenodd" clip-rule="evenodd" d="M98.4648 39.653H102.229V19.543H98.4648V39.653Z" fill="white"/>
<path fill-rule="evenodd" clip-rule="evenodd" d="M109.177 36.053C110.227 37.729 111.337 38.628 113.313 38.628C115.039 38.628 116.89 37.233 116.89 35.152C116.89 29.317 107.512 32.08 107.512 24.88C107.512 21.652 110.196 18.983 113.928 18.983C116.397 18.983 118.896 20.35 119.944 22.583L118.649 23.422C117.877 21.808 116.675 20.567 114.545 20.567C112.479 20.567 111.275 22.15 111.275 24.073C111.275 28.79 120.654 26.804 120.654 34.067C120.654 37.759 117.446 40.211 114.083 40.211C111.368 40.211 109.177 39.404 107.788 37.076L109.177 36.053Z" fill="white"/>
<path fill-rule="evenodd" clip-rule="evenodd" d="M133.925 38.908C138.739 38.908 139.819 33.507 139.819 29.597C139.819 25.687 138.739 20.287 133.925 20.287C129.112 20.287 128.063 25.687 128.063 29.597C128.063 33.507 129.112 38.908 133.925 38.908ZM133.925 18.983C139.726 18.983 143.86 23.67 143.86 29.597C143.86 35.525 139.726 40.211 133.925 40.211C128.155 40.211 124.022 35.525 124.022 29.597C124.022 23.67 128.155 18.983 133.925 18.983Z" fill="white"/>
<path fill-rule="evenodd" clip-rule="evenodd" d="M148.129 39.652V19.543H151.492L161.949 33.384H162.012V19.543H163.616V39.652H161.949L149.795 23.608H149.732V39.652H148.129Z" fill="white"/>
<path fill-rule="evenodd" clip-rule="evenodd" d="M60.194 13.577C60.5369 14.125 60.8998 14.419 61.544 14.419C62.1097 14.419 62.7141 13.963 62.7141 13.283C62.7141 11.377 59.6492 12.279 59.6492 9.927C59.6492 8.872 60.526 8 61.7458 8C62.5531 8 63.3693 8.446 63.7113 9.176L63.2878 9.45C63.0362 8.923 62.6426 8.518 61.9476 8.518C61.2726 8.518 60.8789 9.034 60.8789 9.663C60.8789 11.204 63.9429 10.556 63.9429 12.928C63.9429 14.135 62.8951 14.936 61.7965 14.936C60.9098 14.936 60.194 14.673 59.7396 13.912L60.194 13.577Z" fill="white"/>
<path fill-rule="evenodd" clip-rule="evenodd" d="M67.9961 14.511C69.5688 14.511 69.9217 12.745 69.9217 11.468C69.9217 10.191 69.5688 8.427 67.9961 8.427C66.4233 8.427 66.0813 10.191 66.0813 11.468C66.0813 12.745 66.4233 14.511 67.9961 14.511ZM67.9961 8C69.8919 8 71.242 9.532 71.242 11.468C71.242 13.405 69.8919 14.936 67.9961 14.936C66.1102 14.936 64.7601 13.405 64.7601 11.468C64.7601 9.532 66.1102 8 67.9961 8Z" fill="white"/>
<path fill-rule="evenodd" clip-rule="evenodd" d="M73.6011 8.183V12.878C73.6011 13.892 74.4889 14.267 74.9929 14.267C75.5675 14.267 76.5657 14.065 76.5657 12.939V8.183H77.0896V13.091C77.0896 13.933 76.4533 14.936 74.8 14.936C73.7224 14.936 72.3713 14.521 72.3713 12.848V8.183H73.6011Z" fill="white"/>
<path fill-rule="evenodd" clip-rule="evenodd" d="M79.4487 14.753V8.609H78.1483V8.183H81.9788V8.609H80.6775V14.753H79.4487Z" fill="white"/>
<path fill-rule="evenodd" clip-rule="evenodd" d="M83.0187 14.753V8.183H84.2485V11.072H86.9297V8.183H88.1605V14.753H86.9297V11.59H84.2485V14.753H83.0187Z" fill="white"/>
<path fill-rule="evenodd" clip-rule="evenodd" d="M89.8048 14.753V8.183H93.6661V8.609H91.0336V11.144H93.514V11.569H91.0336V14.328H93.7058V14.753H89.8048Z" fill="white"/>
<path fill-rule="evenodd" clip-rule="evenodd" d="M94.9992 14.753V8.183H97.8216C99.0096 8.183 99.6757 9.066 99.6757 10.119C99.6757 11.124 98.95 11.56 97.9727 11.681L99.7065 14.753H98.3555L96.571 11.387H96.6525C97.7401 11.387 98.446 10.962 98.446 9.978C98.446 9.247 98.093 8.508 96.8941 8.508H96.229V14.753H94.9992Z" fill="white"/>
<path fill-rule="evenodd" clip-rule="evenodd" d="M100.846 14.753V8.183H101.945L105.363 12.705H105.382V8.183H105.906V14.753H105.363L101.39 9.511H101.371V14.753H100.846Z" fill="white"/>
<path fill-rule="evenodd" clip-rule="evenodd" d="M116.455 9.623C115.981 9.004 115.436 8.427 114.57 8.427C112.977 8.427 112.17 9.603 112.17 11.499C112.17 12.979 112.916 14.419 114.419 14.419C115.387 14.419 116.213 13.841 116.586 12.979L117.02 13.192C116.424 14.43 115.427 14.936 114.176 14.936C112.331 14.936 110.85 13.384 110.85 11.55C110.85 9.45 112.382 8 114.297 8C115.326 8 116.254 8.548 116.818 9.359L116.455 9.623Z" fill="white"/>
<path fill-rule="evenodd" clip-rule="evenodd" d="M119.513 10.2L118.565 12.614H120.471L119.513 10.2ZM122.597 14.753H121.337L120.642 13.039H118.395L117.739 14.753H117.165L119.824 8H119.846L122.597 14.753Z" fill="white"/>
<path fill-rule="evenodd" clip-rule="evenodd" d="M123.516 14.753V8.183H124.746V14.236H127.368V14.753H123.516Z" fill="white"/>
<path fill-rule="evenodd" clip-rule="evenodd" d="M128.345 14.753H129.576V8.183H128.345V14.753Z" fill="white"/>
<path fill-rule="evenodd" clip-rule="evenodd" d="M131.348 14.753V8.183H135.098V8.609H132.578V11.144H134.877V11.569H132.578V14.753H131.348Z" fill="white"/>
<path fill-rule="evenodd" clip-rule="evenodd" d="M138.879 14.511C140.452 14.511 140.806 12.745 140.806 11.468C140.806 10.191 140.452 8.427 138.879 8.427C137.307 8.427 136.964 10.191 136.964 11.468C136.964 12.745 137.307 14.511 138.879 14.511ZM138.879 8C140.776 8 142.126 9.532 142.126 11.468C142.126 13.405 140.776 14.936 138.879 14.936C136.994 14.936 135.643 13.405 135.643 11.468C135.643 9.532 136.994 8 138.879 8Z" fill="white"/>
<path fill-rule="evenodd" clip-rule="evenodd" d="M143.253 14.753V8.183H146.077C147.266 8.183 147.931 9.066 147.931 10.119C147.931 11.124 147.204 11.56 146.228 11.681L147.962 14.753H146.611L144.826 11.387H144.907C145.995 11.387 146.702 10.962 146.702 9.978C146.702 9.247 146.348 8.508 145.148 8.508H144.483V14.753H143.253Z" fill="white"/>
<path fill-rule="evenodd" clip-rule="evenodd" d="M149.102 14.753V8.183H150.201L153.618 12.705H153.637V8.183H154.161V14.753H153.618L149.646 9.511H149.626V14.753H149.102Z" fill="white"/>
<path fill-rule="evenodd" clip-rule="evenodd" d="M155.888 14.753H157.117V8.183H155.888V14.753Z" fill="white"/>
<path fill-rule="evenodd" clip-rule="evenodd" d="M160.535 10.2L159.586 12.614H161.491L160.535 10.2ZM163.619 14.753H162.36L161.663 13.039H159.416L158.759 14.753H158.185L160.847 8H160.867L163.619 14.753Z" fill="white"/>
</g>
<defs>
<clipPath id="clip0_201_775">
<rect width="170" height="48" fill="white"/>
</clipPath>
</defs>
</svg>
