<svg width="170" height="48" viewBox="0 0 170 48" fill="none" xmlns="http://www.w3.org/2000/svg">
<g clip-path="url(#clip0_201_737)">
<path d="M0 0H48.0205V48.293H0V0Z" fill="#101820"/>
<mask id="mask0_201_737" style="mask-type:luminance" maskUnits="userSpaceOnUse" x="0" y="0" width="49" height="49">
<path d="M0 0H48.0205V48.293H0V0Z" fill="white"/>
</mask>
<g mask="url(#mask0_201_737)">
<path fill-rule="evenodd" clip-rule="evenodd" d="M1.80637 40.096L20.2529 35.937L1.8183 29.358L20.4766 30.95L6.79702 20.878L22.4818 26.634L7.39748 7.41899L26.4942 22.486L20.7569 6.83599L30.2829 20.133L29.4349 1.82199L35.4087 20.189L39.8605 1.80099V40.047L1.80637 40.096Z" fill="white"/>
</g>
<path fill-rule="evenodd" clip-rule="evenodd" d="M167.508 24.196C168.761 24.196 169.777 23.174 169.777 21.914C169.777 20.652 168.761 19.631 167.508 19.631C166.255 19.631 165.24 20.652 165.24 21.914C165.24 23.174 166.255 24.196 167.508 24.196Z" stroke="#101820" stroke-width="0.25"/>
<mask id="path-5-inside-1_201_737" fill="white">
<path fill-rule="evenodd" clip-rule="evenodd" d="M166.378 23.276C166.556 23.265 166.743 23.255 166.914 23.255C167.053 23.255 167.24 23.265 167.419 23.276V23.182H167.324C167.145 23.182 167.101 23.141 167.101 22.933V22.044C167.43 22.044 167.438 22.068 167.585 22.26L168.36 23.276C168.462 23.265 168.57 23.255 168.677 23.255C168.788 23.255 168.897 23.265 169.003 23.276V23.182C168.844 23.169 168.765 23.153 168.606 22.944L168.04 22.204C167.952 22.093 167.87 22.017 167.805 21.965C168.281 21.864 168.514 21.55 168.514 21.177C168.514 20.553 168.044 20.391 167.523 20.391C167.339 20.391 167.157 20.413 166.914 20.413C166.743 20.413 166.556 20.402 166.378 20.391V20.487H166.473C166.652 20.487 166.695 20.526 166.695 20.735V22.933C166.695 23.141 166.652 23.182 166.473 23.182H166.378V23.276ZM167.101 20.629C167.101 20.541 167.122 20.532 167.249 20.532C167.992 20.532 168.078 20.899 168.078 21.253C168.078 21.511 167.972 21.925 167.289 21.925C167.22 21.925 167.153 21.921 167.101 21.917V20.629Z"/>
</mask>
<path fill-rule="evenodd" clip-rule="evenodd" d="M166.378 23.276C166.556 23.265 166.743 23.255 166.914 23.255C167.053 23.255 167.24 23.265 167.419 23.276V23.182H167.324C167.145 23.182 167.101 23.141 167.101 22.933V22.044C167.43 22.044 167.438 22.068 167.585 22.26L168.36 23.276C168.462 23.265 168.57 23.255 168.677 23.255C168.788 23.255 168.897 23.265 169.003 23.276V23.182C168.844 23.169 168.765 23.153 168.606 22.944L168.04 22.204C167.952 22.093 167.87 22.017 167.805 21.965C168.281 21.864 168.514 21.55 168.514 21.177C168.514 20.553 168.044 20.391 167.523 20.391C167.339 20.391 167.157 20.413 166.914 20.413C166.743 20.413 166.556 20.402 166.378 20.391V20.487H166.473C166.652 20.487 166.695 20.526 166.695 20.735V22.933C166.695 23.141 166.652 23.182 166.473 23.182H166.378V23.276ZM167.101 20.629C167.101 20.541 167.122 20.532 167.249 20.532C167.992 20.532 168.078 20.899 168.078 21.253C168.078 21.511 167.972 21.925 167.289 21.925C167.22 21.925 167.153 21.921 167.101 21.917V20.629Z" fill="#101820"/>
<path d="M166.378 23.276H165.378V24.3397L166.44 24.2741L166.378 23.276ZM167.419 23.276L167.358 24.2741L168.419 24.3394V23.276H167.419ZM167.419 23.182H168.419V22.182H167.419V23.182ZM167.101 22.044V21.044H166.101V22.044H167.101ZM167.585 22.26L168.381 21.6538L168.379 21.6517L167.585 22.26ZM168.36 23.276L167.564 23.8822L167.906 24.3305L168.467 24.2703L168.36 23.276ZM169.003 23.276L168.9 24.2707L170.003 24.3847V23.276H169.003ZM169.003 23.182H170.003V22.2604L169.084 22.1853L169.003 23.182ZM168.606 22.944L169.402 22.3384L169.4 22.336L168.606 22.944ZM168.04 22.204L168.834 21.596L168.825 21.585L168.04 22.204ZM167.805 21.965L167.597 20.9868L165.537 21.4237L167.178 22.7441L167.805 21.965ZM166.378 20.391L166.44 19.3929L165.378 19.3273V20.391H166.378ZM166.378 20.487H165.378V21.487H166.378V20.487ZM166.378 23.182V22.182H165.378V23.182H166.378ZM167.101 21.917H166.101V22.8426L167.024 22.914L167.101 21.917ZM166.378 23.276L166.44 24.2741C166.617 24.2632 166.777 24.255 166.914 24.255V23.255V22.255C166.71 22.255 166.496 22.2668 166.317 22.2779L166.378 23.276ZM166.914 23.255V24.255C167.018 24.255 167.176 24.2629 167.358 24.2741L167.419 23.276L167.481 22.2779C167.304 22.267 167.088 22.255 166.914 22.255V23.255ZM167.419 23.276H168.419V23.182H167.419H166.419V23.276H167.419ZM167.419 23.182V22.182H167.324V23.182V24.182H167.419V23.182ZM167.324 23.182V22.182C167.303 22.182 167.362 22.1793 167.449 22.2005C167.554 22.2258 167.729 22.2923 167.882 22.4589C168.028 22.6179 168.074 22.7823 168.09 22.8556C168.104 22.9227 168.101 22.9614 168.101 22.933H167.101H166.101C166.101 23.0086 166.104 23.1304 166.132 23.2637C166.161 23.4032 166.23 23.6169 166.409 23.812C166.77 24.2045 167.261 24.182 167.324 24.182V23.182ZM167.101 22.933H168.101V22.044H167.101H166.101V22.933H167.101ZM167.101 22.044V23.044C167.181 23.044 167.197 23.046 167.189 23.0451C167.174 23.0436 167.085 23.0334 166.973 22.9788C166.853 22.9203 166.78 22.8466 166.754 22.8177C166.743 22.8065 166.74 22.8017 166.749 22.8131C166.759 22.826 166.769 22.8385 166.792 22.8683L167.585 22.26L168.379 21.6517C168.358 21.625 168.297 21.5417 168.234 21.4728C168.154 21.3853 168.031 21.2696 167.85 21.1812C167.676 21.0966 167.514 21.0684 167.401 21.0564C167.294 21.045 167.186 21.044 167.101 21.044V22.044ZM167.585 22.26L166.79 22.8662L167.564 23.8822L168.36 23.276L169.155 22.6698L168.381 21.6538L167.585 22.26ZM168.36 23.276L168.467 24.2703C168.564 24.2599 168.627 24.255 168.677 24.255V23.255V22.255C168.514 22.255 168.361 22.2701 168.253 22.2817L168.36 23.276ZM168.677 23.255V24.255C168.733 24.255 168.797 24.26 168.9 24.2707L169.003 23.276L169.106 22.2813C168.996 22.27 168.844 22.255 168.677 22.255V23.255ZM169.003 23.276H170.003V23.182H169.003H168.003V23.276H169.003ZM169.003 23.182L169.084 22.1853C169.004 22.1787 169.134 22.1787 169.276 22.2546C169.407 22.3248 169.453 22.4055 169.402 22.3384L168.606 22.944L167.81 23.5496C167.918 23.6915 168.083 23.8847 168.333 24.0184C168.594 24.1578 168.843 24.1723 168.921 24.1787L169.003 23.182ZM168.606 22.944L169.4 22.336L168.834 21.596L168.04 22.204L167.246 22.812L167.812 23.552L168.606 22.944ZM168.04 22.204L168.825 21.585C168.684 21.4063 168.546 21.2778 168.432 21.1859L167.805 21.965L167.178 22.7441C167.193 22.7562 167.22 22.7797 167.254 22.823L168.04 22.204ZM167.805 21.965L168.012 22.9432C168.426 22.8556 168.813 22.6565 169.098 22.3225C169.385 21.9864 169.514 21.5778 169.514 21.177H168.514H167.514C167.514 21.166 167.516 21.143 167.526 21.1126C167.537 21.0814 167.555 21.0502 167.578 21.0234C167.628 20.965 167.66 20.9734 167.597 20.9868L167.805 21.965ZM168.514 21.177H169.514C169.514 20.57 169.26 20.0366 168.758 19.711C168.334 19.4361 167.853 19.391 167.523 19.391V20.391V21.391C167.604 21.391 167.659 21.3976 167.689 21.4042C167.721 21.4109 167.706 21.4128 167.669 21.3889C167.65 21.3762 167.626 21.3572 167.601 21.3306C167.576 21.3036 167.556 21.2737 167.54 21.2434C167.509 21.1807 167.514 21.1471 167.514 21.177H168.514ZM167.523 20.391V19.391C167.397 19.391 167.274 19.3986 167.185 19.4035C167.088 19.4089 167.006 19.413 166.914 19.413V20.413V21.413C167.065 21.413 167.195 21.4061 167.296 21.4004C167.404 21.3944 167.465 21.391 167.523 21.391V20.391ZM166.914 20.413V19.413C166.779 19.413 166.622 19.4041 166.44 19.3929L166.378 20.391L166.317 21.3891C166.491 21.3999 166.708 21.413 166.914 21.413V20.413ZM166.378 20.391H165.378V20.487H166.378H167.378V20.391H166.378ZM166.378 20.487V21.487H166.473V20.487V19.487H166.378V20.487ZM166.473 20.487V21.487C166.495 21.487 166.439 21.4898 166.353 21.4695C166.25 21.4453 166.074 21.3803 165.918 21.213C165.77 21.0528 165.722 20.8863 165.707 20.8124C165.693 20.7449 165.695 20.7059 165.695 20.735H166.695H167.695C167.695 20.6595 167.693 20.5373 167.665 20.4038C167.636 20.2637 167.566 20.0483 167.384 19.8523C167.022 19.4618 166.528 19.487 166.473 19.487V20.487ZM166.695 20.735H165.695V22.933H166.695H167.695V20.735H166.695ZM166.695 22.933H165.695C165.695 22.9614 165.693 22.9227 165.707 22.8556C165.722 22.7823 165.769 22.6179 165.915 22.4589C166.068 22.2923 166.243 22.2258 166.348 22.2005C166.435 22.1793 166.493 22.182 166.473 22.182V23.182V24.182C166.536 24.182 167.027 24.2045 167.388 23.812C167.567 23.6169 167.636 23.4032 167.665 23.2637C167.693 23.1304 167.695 23.0086 167.695 22.933H166.695ZM166.473 23.182V22.182H166.378V23.182V24.182H166.473V23.182ZM166.378 23.182H165.378V23.276H166.378H167.378V23.182H166.378ZM167.101 20.629H168.101C168.101 20.6353 168.101 20.6596 168.098 20.6937C168.095 20.7271 168.087 20.788 168.065 20.8627C168.011 21.0423 167.887 21.2518 167.659 21.3947C167.479 21.5077 167.314 21.5251 167.283 21.5286C167.242 21.5332 167.218 21.532 167.249 21.532V20.532V19.532C167.217 19.532 167.142 19.5319 167.061 19.541C166.991 19.5488 166.797 19.574 166.596 19.7003C166.347 19.8565 166.21 20.0846 166.148 20.2907C166.1 20.4509 166.101 20.5904 166.101 20.629H167.101ZM167.249 20.532V21.532C167.358 21.532 167.383 21.5461 167.358 21.5373C167.323 21.525 167.248 21.4873 167.177 21.4036C167.11 21.3239 167.087 21.2487 167.08 21.219C167.074 21.1959 167.078 21.1986 167.078 21.253H168.078H169.078C169.078 21.0379 169.065 20.5405 168.707 20.1159C168.323 19.6586 167.763 19.532 167.249 19.532V20.532ZM168.078 21.253H167.078C167.078 21.252 167.078 21.2335 167.087 21.2018C167.096 21.1676 167.119 21.1099 167.168 21.0495C167.222 20.985 167.282 20.9468 167.326 20.9291C167.363 20.914 167.361 20.925 167.289 20.925V21.925V22.925C167.841 22.925 168.36 22.7485 168.711 22.322C169.033 21.9325 169.078 21.4943 169.078 21.253H168.078ZM167.289 21.925V20.925C167.256 20.925 167.217 20.9229 167.178 20.92L167.101 21.917L167.024 22.914C167.089 22.919 167.185 22.925 167.289 22.925V21.925ZM167.101 21.917H168.101V20.629H167.101H166.101V21.917H167.101Z" fill="#101820" mask="url(#path-5-inside-1_201_737)"/>
<path d="M71.066 20.043V20.3457H63.0142V29.1045H70.6051V29.4073H63.0142V38.8487H71.189V39.1524H60.2506V20.043H71.066Z" fill="#101820" stroke="#101820"/>
<path d="M83.151 20.043C86.6321 20.043 89.1531 21.2806 90.8082 23.1133C92.4712 24.9549 93.2945 27.4358 93.2945 29.9707C93.2945 33.0718 92.3076 35.3479 90.6754 36.8526C89.0367 38.3631 86.6867 39.1523 83.8609 39.1524H77.1412V20.043H83.151ZM79.9039 38.8487H82.7486C85.8969 38.8486 87.8857 37.6926 89.0611 35.9473C90.212 34.2384 90.5318 32.0397 90.5318 30.0323C90.5318 27.4344 89.9302 25.0263 88.6725 23.253C87.401 21.4605 85.4764 20.3457 82.9342 20.3457H79.9039V38.8487Z" fill="#101820" stroke="#101820"/>
<path d="M101.729 20.043V39.1534H98.9648V20.043H101.729Z" fill="#101820" stroke="#101820"/>
<path d="M113.928 19.483C116.085 19.483 118.239 20.6038 119.29 22.4107L118.837 22.7037C118.468 22.0499 118.008 21.4537 117.412 20.9937C116.658 20.4114 115.715 20.067 114.545 20.067C113.374 20.0671 112.418 20.5206 111.76 21.2691C111.108 22.0104 110.775 23.01 110.775 24.0728C110.775 25.4665 111.49 26.3651 112.462 27.0182C113.393 27.6436 114.641 28.0935 115.768 28.5748C116.934 29.0724 118.026 29.6212 118.83 30.4527C119.615 31.2639 120.154 32.375 120.154 34.067C120.154 37.4242 117.233 39.7105 114.083 39.7105C111.639 39.7105 109.736 39.0385 108.462 37.1998L109.05 36.7672C109.511 37.4315 110.014 37.9838 110.622 38.3863C111.372 38.8826 112.243 39.1275 113.312 39.1275C115.263 39.1275 117.391 37.5587 117.391 35.1519C117.391 33.5245 116.721 32.4611 115.729 31.7008C114.781 30.9741 113.526 30.52 112.387 30.0641C111.209 29.5928 110.124 29.1105 109.323 28.3414C108.549 27.5977 108.012 26.5538 108.012 24.8805C108.012 21.9568 110.443 19.4831 113.928 19.483Z" fill="#101820" stroke="#101820"/>
<path d="M133.925 19.483C139.411 19.483 143.359 23.906 143.359 29.5973C143.359 35.2893 139.411 39.7105 133.925 39.7105C128.471 39.7103 124.522 35.2903 124.522 29.5973C124.522 23.9051 128.471 19.4832 133.925 19.483ZM133.925 19.7867C132.622 19.7868 131.549 20.1552 130.684 20.7887C129.824 21.418 129.194 22.29 128.736 23.2633C127.827 25.1991 127.563 27.6125 127.563 29.5973C127.563 31.582 127.827 33.9952 128.736 35.9312C129.194 36.9046 129.824 37.7774 130.684 38.4068C131.549 39.0402 132.622 39.4077 133.925 39.4078C135.228 39.4078 136.304 39.04 137.172 38.4068C138.034 37.7779 138.668 36.9062 139.129 35.9332C140.047 33.9972 140.318 31.5835 140.318 29.5973C140.318 27.611 140.047 25.1972 139.129 23.2613C138.668 22.2883 138.034 21.4165 137.172 20.7877C136.304 20.1546 135.228 19.7867 133.925 19.7867Z" fill="#101820" stroke="#101820"/>
<path d="M151.242 20.043L161.551 33.6856L161.701 33.8838H162.512V20.043H163.116V39.1524H162.199L150.193 23.3057L150.044 23.1084H149.232V39.1524H148.629V20.043H151.242Z" fill="#101820" stroke="#101820"/>
<path d="M60.4871 9.03125C60.4143 9.23161 60.3787 9.44651 60.3787 9.66309C60.3787 10.2627 60.6987 10.6488 61.0789 10.9043C61.4179 11.1321 61.8766 11.299 62.2146 11.4434C62.5909 11.6041 62.8928 11.7619 63.1052 11.9814C63.2979 12.1807 63.4431 12.4585 63.4431 12.9277C63.4431 13.2767 63.3189 13.5863 63.116 13.834C63.1776 13.6662 63.2146 13.4824 63.2146 13.2832C63.2146 12.6381 62.9395 12.1952 62.5398 11.8887C62.1839 11.6159 61.7177 11.4476 61.3679 11.3076C60.98 11.1523 60.683 11.0158 60.4744 10.8154C60.292 10.6403 60.1492 10.3884 60.1492 9.92676C60.1492 9.59692 60.2695 9.28126 60.4871 9.03125Z" fill="#101820" stroke="#101820"/>
<path d="M70.1156 9.53125C70.5102 10.0427 70.7415 10.7119 70.7415 11.4678C70.7415 12.2239 70.51 12.8929 70.1156 13.4043C70.3516 12.7677 70.4222 12.0509 70.4222 11.4678C70.4222 10.8843 70.352 10.1676 70.1156 9.53125ZM65.8792 9.53711C65.647 10.1722 65.5814 10.8871 65.5814 11.4678C65.5814 12.0479 65.6475 12.7623 65.8792 13.3975C65.4892 12.8872 65.2601 12.2205 65.2601 11.4678C65.2601 10.715 65.4887 10.0476 65.8792 9.53711Z" fill="#101820" stroke="#101820"/>
<path d="M73.1008 8.68301V12.8783C73.1009 13.4547 73.3237 13.895 73.636 14.2025C73.5737 14.1721 73.5133 14.1401 73.4573 14.1029C73.1314 13.8871 72.8713 13.525 72.8713 12.8481V8.68301H73.1008Z" fill="#101820" stroke="#101820"/>
<path d="M80.1776 8.68301V14.2533H79.9491V8.68301H80.1776Z" fill="#101820" stroke="#101820"/>
<path d="M83.7482 8.68301V14.2533H83.5187V8.68301H83.7482ZM87.4298 8.68301H87.6603V14.2533H87.4298V8.68301Z" fill="#101820" stroke="#101820"/>
<path d="M90.5333 8.68301V14.2533H90.3048V8.68301H90.5333Z" fill="#101820" stroke="#101820"/>
<path d="M97.5373 11.9272L98.8498 14.2533H98.6565L97.3664 11.8207C97.3995 11.8142 97.4325 11.8078 97.465 11.8002L97.5373 11.9272ZM95.7287 8.68301V14.2533H95.4992V8.68301H95.7287ZM98.8215 9.08926C99.042 9.3359 99.1759 9.69505 99.176 10.1186C99.176 10.4836 99.0522 10.6978 98.8733 10.8451C98.8222 10.8871 98.7629 10.9256 98.6965 10.9613C98.8604 10.682 98.9455 10.3508 98.9455 9.97794C98.9455 9.66474 98.8907 9.3191 98.7336 9.00137C98.7647 9.02943 98.7941 9.05863 98.8215 9.08926Z" fill="#101820" stroke="#101820"/>
<path d="M101.695 8.68301L104.964 13.0063L105.114 13.2055H105.406V13.9809L101.788 9.20938L101.638 9.01114H101.346V8.68301H101.695Z" fill="#101820" stroke="#101820"/>
<path d="M112.036 9.53223C111.785 10.0938 111.67 10.7647 111.67 11.499C111.67 12.2328 111.837 12.982 112.195 13.5967C111.674 13.0703 111.35 12.3426 111.35 11.5498C111.35 10.7412 111.607 10.0507 112.036 9.53223Z" fill="#101820" stroke="#101820"/>
<path d="M121.853 14.2529H121.674L121.105 12.8516L120.979 12.5391L120.936 12.4297L119.977 10.0156L119.771 9.49805L119.843 9.31738L121.853 14.2529Z" fill="#101820" stroke="#101820"/>
<path d="M124.246 8.68301V14.2533H124.016V8.68301H124.246Z" fill="#101820" stroke="#101820"/>
<path d="M129.076 8.68301V14.2533H128.845V8.68301H129.076Z" fill="#101820" stroke="#101820"/>
<path d="M132.078 8.68301V14.2533H131.848V8.68301H132.078Z" fill="#101820" stroke="#101820"/>
<path d="M140.999 9.5293C141.394 10.041 141.626 10.7111 141.626 11.4678C141.626 12.2236 141.395 12.893 141.001 13.4043C141.237 12.7679 141.306 12.0509 141.306 11.4678C141.306 10.8837 141.236 10.1661 140.999 9.5293ZM136.763 9.53711C136.531 10.1722 136.464 10.887 136.464 11.4678C136.464 12.0481 136.531 12.7623 136.763 13.3975C136.373 12.8871 136.143 12.2206 136.143 11.4678C136.143 10.7149 136.372 10.0476 136.763 9.53711Z" fill="#101820" stroke="#101820"/>
<path d="M145.792 11.9272L147.105 14.2533H146.912L145.622 11.8207C145.655 11.8142 145.688 11.8078 145.72 11.8002L145.792 11.9272ZM143.983 8.68301V14.2533H143.753V8.68301H143.983ZM146.988 9.0004C147.019 9.02874 147.049 9.05829 147.077 9.08926C147.297 9.33581 147.431 9.69487 147.431 10.1186C147.431 10.4833 147.307 10.6977 147.128 10.8451C147.078 10.8867 147.019 10.9249 146.954 10.9604C147.117 10.6813 147.202 10.3503 147.202 9.97794C147.202 9.66416 147.146 9.31844 146.988 9.0004Z" fill="#101820" stroke="#101820"/>
<path d="M149.951 8.68301L153.219 13.0063L153.37 13.2055H153.662V13.9809L150.044 9.20938L149.894 9.01114H149.602V8.68301H149.951Z" fill="#101820" stroke="#101820"/>
<path d="M156.617 8.68301V14.2533H156.388V8.68301H156.617Z" fill="#101820" stroke="#101820"/>
<path d="M162.875 14.2529H162.696L162.126 12.8506L162 12.5391H161.999L161.956 12.4297L161 10.0156L160.794 9.49707L160.864 9.31934L162.875 14.2529Z" fill="#101820" stroke="#101820"/>
</g>
<defs>
<clipPath id="clip0_201_737">
<rect width="170" height="48" fill="white"/>
</clipPath>
</defs>
</svg>
