<svg width="218" height="91" viewBox="0 0 218 91" fill="none" xmlns="http://www.w3.org/2000/svg">
<rect width="217.777" height="90.293" fill="#FED141"/>
<path d="M24 21H72.0205V69.293H24V21Z" fill="#101820"/>
<mask id="mask0_253_1059" style="mask-type:luminance" maskUnits="userSpaceOnUse" x="24" y="21" width="49" height="49">
<path d="M24 21H72.0205V69.293H24V21Z" fill="white"/>
</mask>
<g mask="url(#mask0_253_1059)">
<path fill-rule="evenodd" clip-rule="evenodd" d="M25.8064 61.096L44.2529 56.937L25.8183 50.358L44.4766 51.95L30.797 41.878L46.4818 47.634L31.3975 28.419L50.4942 43.486L44.7569 27.836L54.2829 41.133L53.4349 22.822L59.4087 41.189L63.8605 22.801V61.047L25.8064 61.096Z" fill="white"/>
</g>
<path fill-rule="evenodd" clip-rule="evenodd" d="M191.508 45.196C192.761 45.196 193.777 44.174 193.777 42.914C193.777 41.652 192.761 40.631 191.508 40.631C190.255 40.631 189.24 41.652 189.24 42.914C189.24 44.174 190.255 45.196 191.508 45.196Z" stroke="#101820" stroke-width="0.25"/>
<path fill-rule="evenodd" clip-rule="evenodd" d="M190.378 44.276C190.556 44.265 190.743 44.255 190.914 44.255C191.053 44.255 191.24 44.265 191.419 44.276V44.182H191.324C191.145 44.182 191.101 44.141 191.101 43.933V43.044C191.43 43.044 191.438 43.068 191.585 43.26L192.36 44.276C192.462 44.265 192.57 44.255 192.677 44.255C192.788 44.255 192.897 44.265 193.003 44.276V44.182C192.844 44.169 192.765 44.153 192.606 43.944L192.04 43.204C191.952 43.093 191.87 43.017 191.805 42.965C192.281 42.864 192.514 42.55 192.514 42.177C192.514 41.553 192.044 41.391 191.523 41.391C191.339 41.391 191.157 41.413 190.914 41.413C190.743 41.413 190.556 41.402 190.378 41.391V41.487H190.473C190.652 41.487 190.695 41.526 190.695 41.735V43.933C190.695 44.141 190.652 44.182 190.473 44.182H190.378V44.276ZM191.101 41.629C191.101 41.541 191.122 41.532 191.249 41.532C191.992 41.532 192.078 41.899 192.078 42.253C192.078 42.511 191.972 42.925 191.289 42.925C191.22 42.925 191.153 42.921 191.101 42.917V41.629Z" fill="#101820"/>
<path fill-rule="evenodd" clip-rule="evenodd" d="M83.7506 60.652V40.543H95.5661V41.846H87.5144V49.605H95.1048V50.907H87.5144V59.349H95.6893V60.652H83.7506Z" fill="#101820"/>
<path fill-rule="evenodd" clip-rule="evenodd" d="M104.404 59.349H106.748C112.766 59.349 114.031 54.973 114.031 51.032C114.031 45.973 111.685 41.846 106.934 41.846H104.404V59.349ZM100.641 40.543H107.151C114.369 40.543 117.794 45.693 117.794 50.971C117.794 57.395 113.691 60.652 107.861 60.652H100.641V40.543Z" fill="#101820"/>
<path fill-rule="evenodd" clip-rule="evenodd" d="M122.465 60.653H126.229V40.543H122.465V60.653Z" fill="#101820"/>
<path fill-rule="evenodd" clip-rule="evenodd" d="M133.177 57.053C134.227 58.729 135.337 59.628 137.313 59.628C139.039 59.628 140.89 58.233 140.89 56.152C140.89 50.317 131.512 53.08 131.512 45.88C131.512 42.652 134.196 39.983 137.928 39.983C140.397 39.983 142.896 41.35 143.944 43.583L142.649 44.422C141.877 42.808 140.675 41.567 138.545 41.567C136.479 41.567 135.275 43.15 135.275 45.073C135.275 49.79 144.654 47.804 144.654 55.067C144.654 58.759 141.446 61.211 138.083 61.211C135.368 61.211 133.177 60.404 131.788 58.076L133.177 57.053Z" fill="#101820"/>
<path fill-rule="evenodd" clip-rule="evenodd" d="M157.925 59.908C162.739 59.908 163.819 54.507 163.819 50.597C163.819 46.687 162.739 41.287 157.925 41.287C153.112 41.287 152.063 46.687 152.063 50.597C152.063 54.507 153.112 59.908 157.925 59.908ZM157.925 39.983C163.726 39.983 167.86 44.67 167.86 50.597C167.86 56.525 163.726 61.211 157.925 61.211C152.155 61.211 148.022 56.525 148.022 50.597C148.022 44.67 152.155 39.983 157.925 39.983Z" fill="#101820"/>
<path fill-rule="evenodd" clip-rule="evenodd" d="M172.129 60.652V40.543H175.492L185.949 54.384H186.012V40.543H187.616V60.652H185.949L173.795 44.608H173.732V60.652H172.129Z" fill="#101820"/>
<path fill-rule="evenodd" clip-rule="evenodd" d="M84.194 34.577C84.5369 35.125 84.8998 35.419 85.544 35.419C86.1097 35.419 86.7141 34.963 86.7141 34.283C86.7141 32.377 83.6492 33.279 83.6492 30.927C83.6492 29.872 84.526 29 85.7458 29C86.5531 29 87.3693 29.446 87.7113 30.176L87.2878 30.45C87.0362 29.923 86.6426 29.518 85.9476 29.518C85.2726 29.518 84.8789 30.034 84.8789 30.663C84.8789 32.204 87.9429 31.556 87.9429 33.928C87.9429 35.135 86.8951 35.936 85.7965 35.936C84.9098 35.936 84.194 35.673 83.7396 34.912L84.194 34.577Z" fill="#101820"/>
<path fill-rule="evenodd" clip-rule="evenodd" d="M91.9961 35.511C93.5688 35.511 93.9217 33.745 93.9217 32.468C93.9217 31.191 93.5688 29.427 91.9961 29.427C90.4233 29.427 90.0813 31.191 90.0813 32.468C90.0813 33.745 90.4233 35.511 91.9961 35.511ZM91.9961 29C93.8919 29 95.242 30.532 95.242 32.468C95.242 34.405 93.8919 35.936 91.9961 35.936C90.1102 35.936 88.7601 34.405 88.7601 32.468C88.7601 30.532 90.1102 29 91.9961 29Z" fill="#101820"/>
<path fill-rule="evenodd" clip-rule="evenodd" d="M97.6011 29.183V33.878C97.6011 34.892 98.4889 35.267 98.9929 35.267C99.5675 35.267 100.566 35.065 100.566 33.939V29.183H101.09V34.091C101.09 34.933 100.453 35.936 98.8 35.936C97.7224 35.936 96.3713 35.521 96.3713 33.848V29.183H97.6011Z" fill="#101820"/>
<path fill-rule="evenodd" clip-rule="evenodd" d="M103.449 35.753V29.609H102.148V29.183H105.979V29.609H104.677V35.753H103.449Z" fill="#101820"/>
<path fill-rule="evenodd" clip-rule="evenodd" d="M107.019 35.753V29.183H108.248V32.072H110.93V29.183H112.16V35.753H110.93V32.59H108.248V35.753H107.019Z" fill="#101820"/>
<path fill-rule="evenodd" clip-rule="evenodd" d="M113.805 35.753V29.183H117.666V29.609H115.034V32.144H117.514V32.569H115.034V35.328H117.706V35.753H113.805Z" fill="#101820"/>
<path fill-rule="evenodd" clip-rule="evenodd" d="M118.999 35.753V29.183H121.822C123.01 29.183 123.676 30.066 123.676 31.119C123.676 32.124 122.95 32.56 121.973 32.681L123.707 35.753H122.355L120.571 32.387H120.653C121.74 32.387 122.446 31.962 122.446 30.978C122.446 30.247 122.093 29.508 120.894 29.508H120.229V35.753H118.999Z" fill="#101820"/>
<path fill-rule="evenodd" clip-rule="evenodd" d="M124.846 35.753V29.183H125.945L129.363 33.705H129.382V29.183H129.906V35.753H129.363L125.39 30.511H125.371V35.753H124.846Z" fill="#101820"/>
<path fill-rule="evenodd" clip-rule="evenodd" d="M140.455 30.623C139.981 30.004 139.436 29.427 138.57 29.427C136.977 29.427 136.17 30.603 136.17 32.499C136.17 33.979 136.916 35.419 138.419 35.419C139.387 35.419 140.213 34.841 140.586 33.979L141.02 34.192C140.424 35.43 139.427 35.936 138.176 35.936C136.331 35.936 134.85 34.384 134.85 32.55C134.85 30.45 136.382 29 138.297 29C139.326 29 140.254 29.548 140.818 30.359L140.455 30.623Z" fill="#101820"/>
<path fill-rule="evenodd" clip-rule="evenodd" d="M143.513 31.2L142.565 33.614H144.471L143.513 31.2ZM146.597 35.753H145.337L144.642 34.039H142.395L141.739 35.753H141.165L143.824 29H143.846L146.597 35.753Z" fill="#101820"/>
<path fill-rule="evenodd" clip-rule="evenodd" d="M147.516 35.753V29.183H148.746V35.236H151.368V35.753H147.516Z" fill="#101820"/>
<path fill-rule="evenodd" clip-rule="evenodd" d="M152.345 35.753H153.576V29.183H152.345V35.753Z" fill="#101820"/>
<path fill-rule="evenodd" clip-rule="evenodd" d="M155.348 35.753V29.183H159.098V29.609H156.578V32.144H158.877V32.569H156.578V35.753H155.348Z" fill="#101820"/>
<path fill-rule="evenodd" clip-rule="evenodd" d="M162.879 35.511C164.452 35.511 164.806 33.745 164.806 32.468C164.806 31.191 164.452 29.427 162.879 29.427C161.307 29.427 160.964 31.191 160.964 32.468C160.964 33.745 161.307 35.511 162.879 35.511ZM162.879 29C164.776 29 166.126 30.532 166.126 32.468C166.126 34.405 164.776 35.936 162.879 35.936C160.994 35.936 159.643 34.405 159.643 32.468C159.643 30.532 160.994 29 162.879 29Z" fill="#101820"/>
<path fill-rule="evenodd" clip-rule="evenodd" d="M167.253 35.753V29.183H170.077C171.266 29.183 171.931 30.066 171.931 31.119C171.931 32.124 171.204 32.56 170.228 32.681L171.962 35.753H170.611L168.826 32.387H168.907C169.995 32.387 170.702 31.962 170.702 30.978C170.702 30.247 170.348 29.508 169.148 29.508H168.483V35.753H167.253Z" fill="#101820"/>
<path fill-rule="evenodd" clip-rule="evenodd" d="M173.102 35.753V29.183H174.201L177.618 33.705H177.637V29.183H178.161V35.753H177.618L173.646 30.511H173.626V35.753H173.102Z" fill="#101820"/>
<path fill-rule="evenodd" clip-rule="evenodd" d="M179.888 35.753H181.117V29.183H179.888V35.753Z" fill="#101820"/>
<path fill-rule="evenodd" clip-rule="evenodd" d="M184.535 31.2L183.586 33.614H185.491L184.535 31.2ZM187.619 35.753H186.36L185.663 34.039H183.416L182.759 35.753H182.185L184.847 29H184.867L187.619 35.753Z" fill="#101820"/>
</svg>
